<svg width="137" height="148" viewBox="0 0 137 148" fill="none" xmlns="http://www.w3.org/2000/svg">
<path d="M35.3747 133.599C40.0298 136.137 44.8079 138.056 49.6936 139.406L49.7391 139.419C74.1458 129.188 92.5122 108.375 99.5545 82.8827C94.6976 100.467 76.5287 110.77 58.9461 105.913C41.3603 101.055 31.0569 82.8872 35.9155 65.3029C42.7832 39.7135 61.2378 18.7743 85.7793 8.77932C56.1104 0.533967 23.5953 13.4814 8.22994 41.7319C-9.61398 74.6054 2.51333 115.709 35.3747 133.599Z" fill="url(#paint0_linear_16004_226)"/>
<path d="M93.2653 96.581C94.1775 94.7289 94.7033 93.561 94.9232 93.3411L93.3412 96.5052L93.2653 96.581C87.6156 108.052 67.1408 145.769 12.6564 147.131C21.094 143.967 37.3365 135.107 34.8052 124.982L52.2078 120.236L79.1027 109.162L90.177 99.6693L93.2653 96.581Z" fill="url(#paint1_linear_16004_226)"/>
<path d="M100.079 13.6843C95.3445 11.1178 90.4849 9.17659 85.5159 7.8113L85.4696 7.79882C60.6469 18.1443 41.1333 41.1333 34.8051 68.0283C39.7448 50.2465 58.2234 36.7692 76.1057 41.6806C93.9913 46.5937 104.47 64.9655 99.5289 82.7473C92.5441 108.624 73.7749 129.799 48.8152 139.906C78.9897 148.244 112.059 135.151 127.686 106.583C145.834 73.3403 133.5 31.7748 100.079 13.6843Z" fill="url(#paint2_linear_16004_226)"/>
<path d="M41.2015 51.1178C40.2737 52.9908 39.739 54.1717 39.5153 54.3942L41.1244 51.1945L41.2015 51.1178C46.9475 39.5183 67.7713 1.37737 123.184 -4.24385e-05C114.603 3.19962 98.0837 12.1587 100.658 22.3976L82.9589 27.1971L55.6055 38.3959L44.3424 47.9948L41.2015 51.1178Z" fill="url(#paint3_linear_16004_226)"/>
<defs>
<linearGradient id="paint0_linear_16004_226" x1="49.7773" y1="6.32812" x2="49.7773" y2="147.131" gradientUnits="userSpaceOnUse">
<stop stop-color="#0B68F7"/>
<stop offset="1" stop-color="#0E0A2F"/>
</linearGradient>
<linearGradient id="paint1_linear_16004_226" x1="49.7773" y1="6.32812" x2="49.7773" y2="147.131" gradientUnits="userSpaceOnUse">
<stop stop-color="#0B68F7"/>
<stop offset="1" stop-color="#0E0A2F"/>
</linearGradient>
<linearGradient id="paint2_linear_16004_226" x1="85.4308" y1="142.385" x2="85.4308" y2="-4.57764e-05" gradientUnits="userSpaceOnUse">
<stop stop-color="#0B68F7"/>
<stop offset="1" stop-color="#0E0A2F"/>
</linearGradient>
<linearGradient id="paint3_linear_16004_226" x1="85.4308" y1="142.385" x2="85.4308" y2="-4.57764e-05" gradientUnits="userSpaceOnUse">
<stop stop-color="#0B68F7"/>
<stop offset="1" stop-color="#0E0A2F"/>
</linearGradient>
</defs>
</svg>
